<svg width="69" height="69" viewBox="0 0 69 69" fill="none" xmlns="http://www.w3.org/2000/svg">
<g clip-path="url(#clip0_9_12)">
<path d="M64.0237 0H4.97633C2.22784 0 0 2.22784 0 4.97633V64.0237C0 66.7722 2.22784 69 4.97633 69H36.8584V42.3164H27.8965V31.8721H36.8584V24.1857C36.8584 15.2722 42.3001 10.4206 50.2513 10.4206C54.0594 10.4206 57.3322 10.7044 58.2861 10.8313V20.1475H52.8034C48.4772 20.1475 47.6396 22.2032 47.6396 25.2201V31.8721H57.9829L56.6353 42.3164H47.6396V69H64.0237C66.7722 69 69 66.7722 69 64.0237V4.97633C69 2.22784 66.7722 0 64.0237 0V0Z" fill="#DD902F"/>
</g>
<defs>
<clipPath id="clip0_9_12">
<rect width="69" height="69" fill="white"/>
</clipPath>
</defs>
</svg>
