<svg width="68" height="68" viewBox="0 0 68 68" fill="none" xmlns="http://www.w3.org/2000/svg">
<g clip-path="url(#clip0_9_36)">
<path d="M65.4338 2.56813C63.7219 0.855784 61.6705 0 59.2805 0H8.72274C6.33201 0 4.28117 0.856094 2.56882 2.56813C0.856791 4.27969 0.00100708 6.33085 0.00100708 8.72112V59.2784C0.00100708 61.6684 0.856636 63.72 2.56882 65.4317C4.28117 67.1436 6.33247 68 8.72274 68H59.2799C61.6694 68 63.7215 67.1436 65.4333 65.4317C67.1457 63.72 68.0007 61.6684 68.0007 59.2784V8.72112C68.0005 6.33038 67.1457 4.28031 65.4338 2.56813ZM24.4171 24.5036C27.0879 21.9215 30.2977 20.6298 34.046 20.6298C37.8233 20.6298 41.0475 21.9215 43.7189 24.5036C46.3903 27.0861 47.7252 30.2075 47.7252 33.8671C47.7252 37.5262 46.3903 40.6478 43.7189 43.2296C41.0475 45.8127 37.8244 47.1042 34.046 47.1042C30.2978 47.1042 27.0884 45.8116 24.4171 43.2296C21.7457 40.6475 20.4102 37.5262 20.4102 33.8671C20.4102 30.2075 21.7457 27.0863 24.4171 24.5036ZM60.2988 57.464C60.2988 58.2308 60.0324 58.8725 59.5016 59.3893C58.9693 59.9056 58.3357 60.164 57.5972 60.164H10.2724C9.50518 60.164 8.86277 59.9056 8.34672 59.3893C7.8299 58.8736 7.57172 58.2308 7.57172 57.464V28.7755H13.8137C13.2237 30.6352 12.9286 32.5686 12.9286 34.5751C12.9286 40.2431 14.9944 45.0751 19.1263 49.0751C23.2587 53.0735 28.2316 55.0736 34.0458 55.0736C37.8827 55.0736 41.4241 54.1583 44.6717 52.3286C47.9182 50.4978 50.4843 48.0118 52.3745 44.8683C54.2636 41.7248 55.2081 38.2936 55.2081 34.5753C55.2081 32.5688 54.912 30.6358 54.322 28.7757H60.2991V57.4642H60.2988V57.464ZM60.2988 17.9291C60.2988 18.7851 60.0037 19.5083 59.4125 20.0984C58.8225 20.6891 58.0997 20.984 57.2433 20.984H49.5405C48.685 20.984 47.9612 20.6889 47.3712 20.0984C46.781 19.5083 46.4861 18.7851 46.4861 17.9291V10.6251C46.4861 9.79864 46.781 9.08303 47.3712 8.47783C47.9613 7.87293 48.6852 7.5701 49.5405 7.5701H57.2433C58.0997 7.5701 58.8226 7.87278 59.4125 8.47783C60.0036 9.08303 60.2988 9.79864 60.2988 10.6251V17.9291Z" fill="#DD902F"/>
</g>
<defs>
<clipPath id="clip0_9_36">
<rect width="68" height="68" fill="white"/>
</clipPath>
</defs>
</svg>
