<svg width="69" height="69" viewBox="0 0 69 69" fill="none" xmlns="http://www.w3.org/2000/svg">
<path d="M34.8557 16.3335C25.0611 16.3335 17.1269 24.213 17.1269 33.9528C17.1269 37.7831 18.3854 41.3946 20.5194 44.2946L18.276 50.8609L25.1158 48.6721C27.9064 50.5325 31.299 51.5722 34.9104 51.5722C44.705 51.5722 52.6939 43.6927 52.6939 33.9528C52.6392 24.213 44.6503 16.3335 34.8557 16.3335ZM45.2522 41.2304C44.8144 42.4342 42.6804 43.5833 41.7502 43.6927C40.82 43.8022 40.82 44.4588 35.5123 42.4342C30.2593 40.3549 26.9215 35.0472 26.6479 34.6642C26.3743 34.3359 24.5139 31.8735 24.5139 29.3565C24.5139 26.8394 25.8271 25.5809 26.3196 25.0885C26.8121 24.596 27.3592 24.4318 27.6876 24.4318C28.0159 24.4318 28.3989 24.4865 28.6725 24.4865C29.0008 24.4865 29.3838 24.3224 29.8216 25.362C30.2593 26.4017 31.299 28.9187 31.4084 29.1923C31.5179 29.4659 31.6273 29.7395 31.4631 30.0678C31.299 30.3961 31.1895 30.615 30.9707 30.9433C30.6971 31.2169 30.4235 31.6 30.2046 31.8188C29.931 32.0924 29.6574 32.366 29.9857 32.8585C30.314 33.3509 31.3537 35.0472 32.8858 36.4152C34.8557 38.1662 36.5519 38.7134 37.0444 38.9869C37.5369 39.2605 37.8652 39.2058 38.1388 38.8775C38.4671 38.5492 39.452 37.4001 39.7803 36.8529C40.1086 36.3605 40.4917 36.4152 40.9294 36.5793C41.4219 36.7435 43.9389 38.002 44.4861 38.2756C44.9786 38.5492 45.3616 38.6586 45.4711 38.8775C45.6352 38.9869 45.6352 40.0266 45.2522 41.2304Z" fill="#DD902F"/>
<path d="M51.6542 0.027832H17.291C7.77002 0.027832 0 7.79786 0 17.3189V51.7368C0 61.2031 7.77002 68.9731 17.291 68.9731H51.709C61.23 68.9731 69 61.2031 69 51.6821V17.3189C68.9453 7.79786 61.1753 0.027832 51.6542 0.027832ZM34.8557 54.9105C31.1348 54.9105 27.6875 53.9802 24.6233 52.284L12.9136 56.0048L16.7439 44.7875C14.8287 41.6139 13.7343 37.893 13.7343 33.9533C13.7343 22.353 23.2006 12.9961 34.8557 12.9961C46.5107 12.9961 55.977 22.353 55.977 33.9533C55.977 45.5536 46.5107 54.9105 34.8557 54.9105Z" fill="#DD902F"/>
</svg>
